<?xml version="1.0" encoding="UTF-8"?><svg id="Layer_1" xmlns="http://www.w3.org/2000/svg" viewBox="0 0 360 288"><defs><style>.cls-1{fill:#fff;}.cls-2{fill:#1a1a1a;}.cls-3{fill:#ffa800;}</style></defs><path class="cls-2" d="M148.87,288h191.18c-5.13-6.2-9.9-12.24-14.26-18.14-8.1-10.96-14.77-21.41-19.75-31.41-4.62-9.27-7.8-18.19-9.45-26.66-3-15.47-.67-29.88,4.68-42.41,5.02-11.76,12.44-22.13,19.3-31.71,11.96-16.69,20.52-32.09,14.25-44.04-6.5-12.35-24.3-21.61-41.29-30.62-15.37-8.14-28.8-15.15-30.22-22.41-1.14-5.89,7.89-11.11,16.48-15.51,7.87-4.03,14.59-8.37,12.71-11.96-2.36-4.47-11.7-7.53-21.02-10.98C256.63,1.43,241.65,.72,226.53,0c8.05,3.43,16.41,6.8,16.64,10.93,.21,4.12-9.07,7.88-19.43,11.89-11.34,4.39-23.31,8.9-25.32,15.49-1.98,6.56,8.5,14.37,20.66,22.58,13.47,9.1,27.79,19.19,28.45,31.1,.33,6.27-3.22,13.19-9.31,20.06-7.07,7.98-17.21,16.09-28.48,25.15-12.34,9.91-25.63,20.56-37.34,32.97-12.21,12.94-22.43,27.85-27.53,44.64-2.69,8.87-4.03,18.37-3.94,28.37,.09,10.59,1.78,21.85,4.8,33.71,.93,3.64,1.99,7.35,3.16,11.11Z"/><path class="cls-3" d="M161.38,276.27c1.14,3.84,2.43,7.75,3.84,11.73h4.74c-1.48-4.04-2.85-8.01-4.05-11.9-3.62-11.76-5.9-22.93-6.56-33.45-.62-9.91,.19-19.35,2.38-28.17,4.14-16.64,13.47-31.5,24.9-44.39,10.95-12.34,23.57-22.95,35.29-32.83,10.71-9.02,20.35-17.12,26.95-25.07,5.69-6.86,8.85-13.78,8.19-20.01-1.28-11.98-16.02-21.95-29.88-31.05-12.51-8.21-23.36-15.92-21.72-22.57,1.63-6.53,13.32-11.11,24.35-15.5,10.09-4.01,19.11-7.83,18.69-11.9-.45-4.18-8.92-7.51-17.12-10.94-.36-.02-.73-.03-1.09-.05,8.16,3.43,16.61,6.77,17.01,10.94,.38,4.08-8.71,7.88-18.86,11.89-11.1,4.39-22.85,8.95-24.57,15.49-1.72,6.63,9.05,14.36,21.48,22.57,13.78,9.09,28.42,19.09,29.56,31.06,.58,6.24-2.66,13.16-8.44,20.02-6.7,7.95-16.46,16.05-27.29,25.09-11.86,9.88-24.63,20.51-35.75,32.86-11.6,12.9-21.13,27.77-25.49,44.44-2.3,8.83-3.24,18.29-2.73,28.22,.54,10.54,2.68,21.73,6.17,33.51Z"/><path class="cls-3" d="M284.75,62.76c16.59,9.02,34.01,18.35,39.82,30.67,5.67,12.08-3.9,27.44-16.93,44.18-7.48,9.62-15.57,20.01-21.33,31.86-6.12,12.58-9.35,27.05-7.22,42.67,1.16,8.52,3.85,17.51,7.97,26.86,4.45,10.06,10.58,20.61,18.13,31.67,3.85,5.64,8.08,11.41,12.62,17.33h4.46c-4.66-5.98-8.99-11.81-12.94-17.5-7.66-11.04-13.9-21.57-18.46-31.62-4.23-9.33-7.01-18.31-8.27-26.82-2.3-15.59,.74-30.05,6.71-42.62,5.62-11.83,13.57-22.22,20.92-31.83,12.81-16.73,22.18-32.1,16.39-44.15-5.95-12.33-23.45-21.65-40.12-30.66-15.07-8.15-28.26-15.22-29.34-22.42-.87-5.96,8.46-11.11,17.31-15.51,8.1-4.03,15.08-8.32,13.34-11.95-2.15-4.45-11.41-7.53-20.61-10.98-.36-.02-.71-.03-1.07-.05,9.17,3.45,18.41,6.54,20.51,10.98,1.71,3.65-5.34,7.93-13.49,11.95-8.91,4.4-18.32,9.53-17.51,15.51,.99,7.19,14.12,14.28,29.12,22.43Z"/><g><path class="cls-1" d="M263.02,6.94c2.29,1.27,4.16,2.61,5.1,4.07-.39-.02-.78-.03-1.17-.05-.92-1.45-2.78-2.79-5.06-4.07,.38,.02,.76,.03,1.13,.05Zm4.94,8.21c-1.08,1.5-3.12,2.9-5.63,4.27l-1.28-.05c2.53-1.37,4.6-2.77,5.69-4.27l1.22,.05Zm-15.23,8.82c-3.6,1.6-7.24,3.21-10.59,5.01l-1.42-.05c3.38-1.8,7.04-3.41,10.67-5l1.35,.05Zm-18.53,10.69c-1.75,1.96-2.58,4.29-2.07,6.55-.53-.02-1.05-.04-1.58-.05-.48-2.26,.37-4.59,2.15-6.55,.5,.02,1,.04,1.5,.06Zm3.36,14.08c3.25,2.85,7.49,5.65,12.25,8.57l-1.75-.05c-4.73-2.92-8.95-5.72-12.17-8.57l1.66,.05Zm28.34,18.2c5.54,3.39,10.88,6.9,15.47,10.73-.65-.02-1.29-.03-1.94-.05-4.55-3.83-9.87-7.34-15.37-10.73l1.84,.05Zm25.67,22.71c2.07,4.22,2.58,8.89,1.41,13.56l-2.22-.03c1.22-4.67,.77-9.35-1.25-13.57l2.06,.04Zm-7.22,29.26c-4.66,5.94-10.59,12.05-16.97,18.63h-2.66c6.47-6.6,12.48-12.71,17.22-18.65l2.42,.02Zm-37.53,41.23c-6.83,8.49-12.91,17.77-16.97,27.91-1.11,.01-2.22,.03-3.33,.04,4.2-10.16,10.4-19.44,17.34-27.94,.99,0,1.98,0,2.97,0Zm-22.29,62.82c1.04,13.63,5.57,28.46,13.03,44.26-1.42,.05-2.84,.11-4.26,.16-7.29-15.84-11.65-30.69-12.53-44.33,1.25-.03,2.51-.06,3.76-.09Z"/><path class="cls-1" d="M249.7,1.1c1.57,.62,3.15,1.24,4.71,1.88l-1.1-.05c-1.56-.64-3.13-1.26-4.69-1.88,.36,.02,.72,.03,1.08,.05Z"/></g></svg>