<?xml version="1.0" encoding="UTF-8"?><svg id="Layer_1" xmlns="http://www.w3.org/2000/svg" viewBox="0 0 1740 512"><defs><style>.cls-1{fill:#00a85f;}.cls-2{fill:#dd2127;}.cls-3{fill:#212121;}</style></defs><g><path class="cls-3" d="M598.45,131.79h48.9v89.95l82.74-89.95h60.49l-87.13,96.85c7.52,10.45,21.42,29.93,41.69,58.45,20.26,28.52,35.42,49.79,45.45,63.78h-57.04l-64.25-86.51-21.94,24.45v62.06h-48.9V131.79Z"/><path class="cls-3" d="M954.5,350.87h-44.19v-20.37c-12.12,15.26-27.11,22.88-44.98,22.88s-32.86-5.17-44.98-15.51c-12.12-10.34-18.18-24.13-18.18-41.37s6.27-30.14,18.8-38.71c12.54-8.56,29.67-12.85,51.4-12.85h35.11v-.94c0-17.97-9.51-26.96-28.52-26.96-8.15,0-16.77,1.62-25.86,4.86-9.09,3.24-16.77,7.26-23.04,12.06l-21-30.4c22.14-16.09,47.43-24.14,75.85-24.14,20.48,0,37.19,5.12,50.15,15.36,12.95,10.24,19.43,26.44,19.43,48.58v107.5Zm-47.33-64.25v-8.15h-29.46c-18.81,0-28.21,5.85-28.21,17.55,0,6.06,2.24,10.71,6.74,13.95,4.49,3.24,10.92,4.86,19.28,4.86s15.72-2.56,22.1-7.68c6.37-5.12,9.56-11.96,9.56-20.53Z"/><path class="cls-3" d="M1044.46,256.84v94.03h-47.02V182.25h47.02v18.8c14.2-14.42,30.19-21.63,47.95-21.63s32.65,6.27,44.67,18.81c12.01,12.54,18.02,29.26,18.02,50.15v102.49h-47.01v-95.28c0-25.91-9.51-38.86-28.52-38.86-9.4,0-17.6,3.4-24.6,10.19-7,6.79-10.5,16.77-10.5,29.93Z"/><path class="cls-3" d="M1295.82,179.43c19.64,0,37.14,8.2,52.5,24.61,15.36,16.41,23.04,37.04,23.04,61.9s-7.68,45.66-23.04,62.37c-15.36,16.72-33.33,25.07-53.91,25.07s-37.14-8.25-49.68-24.76v83.06h-47.02V182.25h47.02v18.8c14.42-14.42,31.44-21.63,51.09-21.63Zm-51.71,87.29c0,13.69,3.81,24.87,11.44,33.54,7.62,8.68,16.87,13.01,27.74,13.01s20.37-4.33,28.52-13.01c8.15-8.67,12.22-19.79,12.22-33.38s-3.97-24.96-11.91-34.16c-7.95-9.19-17.45-13.79-28.52-13.79s-20.43,4.55-28.05,13.64c-7.63,9.09-11.44,20.48-11.44,34.16Z"/><path class="cls-3" d="M1549.69,350.87h-44.19v-20.37c-12.12,15.26-27.11,22.88-44.98,22.88s-32.86-5.17-44.98-15.51c-12.12-10.34-18.18-24.13-18.18-41.37s6.27-30.14,18.8-38.71c12.54-8.56,29.67-12.85,51.4-12.85h35.11v-.94c0-17.97-9.51-26.96-28.52-26.96-8.15,0-16.77,1.62-25.86,4.86-9.09,3.24-16.77,7.26-23.04,12.06l-21-30.4c22.14-16.09,47.43-24.14,75.85-24.14,20.48,0,37.19,5.12,50.15,15.36,12.95,10.24,19.43,26.44,19.43,48.58v107.5Zm-47.33-64.25v-8.15h-29.46c-18.81,0-28.21,5.85-28.21,17.55,0,6.06,2.24,10.71,6.74,13.95,4.49,3.24,10.92,4.86,19.28,4.86s15.72-2.56,22.1-7.68c6.37-5.12,9.56-11.96,9.56-20.53Z"/><path class="cls-3" d="M1719.56,298.38c0,16.61-6.11,29.93-18.33,39.96-12.23,10.03-27.74,15.04-46.54,15.04-12.54,0-25.6-2.25-39.18-6.74-13.58-4.49-25.81-11.13-36.67-19.9l20.69-29.46c17.55,13.59,36.25,20.37,56.1,20.37,6.06,0,10.86-1.2,14.42-3.6,3.55-2.4,5.33-5.59,5.33-9.56s-2.46-7.62-7.37-10.97c-4.91-3.34-12.02-6.47-21.31-9.4-9.3-2.92-16.41-5.43-21.31-7.52-4.91-2.08-10.5-5.12-16.77-9.09-12.75-7.94-19.12-19.69-19.12-35.26s6.27-28.26,18.81-38.08c12.54-9.82,28.73-14.73,48.58-14.73s39.7,6.69,59.55,20.06l-17.55,31.34c-14.63-10.03-29.2-15.05-43.72-15.05s-21.78,3.97-21.78,11.91c0,4.39,2.3,7.84,6.89,10.34,4.59,2.51,12.23,5.44,22.88,8.78,10.66,3.34,18.23,5.91,22.72,7.68,4.49,1.78,9.87,4.55,16.14,8.31,11.7,7.11,17.55,18.96,17.55,35.57Z"/></g><path class="cls-1" d="M434.06,450.35l-130.16-130.22c-9.89-9.89-25.92-9.89-35.81,0l-71.17,71.17c-9.89,9.88-9.89,25.91,0,35.8l59.01,59.05c4.75,4.75,11.19,7.42,17.91,7.42h142.33c22.55,0,33.85-27.26,17.91-43.22Z"/><path class="cls-2" d="M404.41,18.43H50.61c-16.67,0-30.18,13.51-30.18,30.18V402.41c0,26.88,32.5,40.35,51.51,21.34L425.75,69.94c19.01-19.01,5.55-51.51-21.34-51.51Z"/></svg>